<mxfile host="app.diagrams.net" modified="2024-07-15T13:29:21.480Z" agent="Mozilla/5.0 (Macintosh; Intel Mac OS X 10_15_7) AppleWebKit/537.36 (KHTML, like Gecko) Chrome/126.0.0.0 Safari/537.36" version="24.6.5" etag="ZwpIqDWuk0ZYtl4p17CE" type="github">
  <diagram name="Seite-1" id="B4aqrbCCtMcahn1N4isW">
    <mxGraphModel>
      <root>
        <mxCell id="0" />
        <mxCell id="1" parent="0" />
      </root>
    </mxGraphModel>
  </diagram>
</mxfile>
